<?xml version="1.0" standalone="no"?><!DOCTYPE svg PUBLIC "-//W3C//DTD SVG 1.1//EN" "http://www.w3.org/Graphics/SVG/1.1/DTD/svg11.dtd"><svg t="1556811784413" class="icon" style="" viewBox="0 0 1024 1024" version="1.1" xmlns="http://www.w3.org/2000/svg" p-id="3571" xmlns:xlink="http://www.w3.org/1999/xlink" width="200" height="200"><defs><style type="text/css"></style></defs><path d="M508.34940208 792.26591763c-22.11718637 0-41.00975882-7.11308325-56.67650371-21.35017245-15.66674489-14.23102103-25.65006222-35.48046222-29.95116562-63.7422554l-58.0600415 4.9152c3.68579318 37.8919443 18.47993837 68.30307555 44.38850372 91.23703467 25.90613808 22.94002725 59.33677985 34.4064 100.29920711 34.4064 49.96634548 0 89.39353125-18.22507615 118.26942103-54.68008297 23.75558637-29.69144889 35.63459318-64.91704889 35.63459319-105.67437273 0-42.80107615-13.51740682-77.82035911-40.54979319-105.06027616-27.03238637-27.23263525-60.21059318-40.85562785-99.53097956-40.85562784-29.69751703 0-58.05882785 9.06338608-85.09121422 27.9025588L461.34916741 437.96859259H640.64474075v-52.18607407H417.11236741l-43.62027616 231.3505754 51.91543467 6.7744806c8.18835911-12.90209659 19.45448297-23.38542933 33.79230341-31.47912534 14.3317523-8.08520059 30.41113125-12.12901452 48.22721422-12.12901451 28.672 0 51.86324859 9.11799941 69.57981393 27.3406483 17.71171082 18.22993067 26.57242075 43.11540622 26.57242074 74.65035851 0 33.17699318-9.21508978 59.80281363-27.64648297 79.87139319-18.43260682 20.07100682-40.96242725 30.10408297-67.58339317 30.10408296z" fill="#999"></path><path d="M894.81762133 50.82074075H131.55259733C85.31694933 50.82074075 47.17985185 88.05732503 47.17985185 134.29418667v756.1337363C47.17985185 936.66478459 85.31694933 974.39288889 131.55259733 974.39288889h763.41551408C941.20497303 974.39288889 978.03377778 936.66478459 978.03377778 890.42792297V134.29418667c0-46.23686163-36.98050845-83.47344592-83.21615645-83.47344592zM732.27377778 117.57037037c30.16233718 0 54.61333333 24.45099615 54.61333333 54.61333333s-24.45099615 54.61333333-54.61333333 54.61333333-54.61333333-24.45099615-54.61333333-54.61333333 24.45099615-54.61333333 54.61333333-54.61333333z m-439.33392593 0c30.16233718 0 54.61333333 24.45099615 54.61333333 54.61333333s-24.45099615 54.61333333-54.61333333 54.61333333-54.61333333-24.45099615-54.61333333-54.61333333 24.45099615-54.61333333 54.61333333-54.61333333zM905.216 890.42792297c0 6.01110755-4.23556741 11.14718815-10.24667497 11.14718814H131.55259733c-6.01110755 0-11.5549677-5.13486697-11.5549677-11.14718814V276.55585185h785.21837037v613.87207112z" fill="#999"></path></svg>